<svg xmlns="http://www.w3.org/2000/svg" width="24" height="23" viewBox="0 0 24 23" fill="none">
  <path d="M14.0815 2.04639V5.8282C14.0815 6.32971 14.2807 6.81067 14.6353 7.16528C14.9899 7.51989 15.4709 7.71911 15.9724 7.71911H19.7542M15.027 2.04639H6.51786C6.01636 2.04639 5.5354 2.24561 5.18079 2.60022C4.82617 2.95484 4.62695 3.4358 4.62695 3.9373V19.0646C4.62695 19.5661 4.82617 20.047 5.18079 20.4016C5.5354 20.7563 6.01636 20.9555 6.51786 20.9555H17.8633C18.3648 20.9555 18.8458 20.7563 19.2004 20.4016C19.555 20.047 19.7542 19.5661 19.7542 19.0646V6.77366L15.027 2.04639Z" stroke="#06B6D4" stroke-width="1.27636" stroke-linecap="round" stroke-linejoin="round"/>
  <path d="M9.97755 10.5448V15.5653C9.68541 15.3047 9.30045 15.1461 8.87907 15.1461C7.96815 15.1461 7.22705 15.8872 7.22705 16.7981C7.22705 17.709 7.96815 18.4501 8.87907 18.4501C9.78886 18.4501 10.5292 17.7109 10.5311 16.8015H10.5311V12.7668L15.445 11.5211V14.2326C15.1529 13.972 14.7679 13.8133 14.3466 13.8133C13.4356 13.8133 12.6945 14.5544 12.6945 15.4654C12.6945 16.3763 13.4356 17.1174 14.3466 17.1174C15.2575 17.1174 15.9986 16.3763 15.9986 15.4654V9.01855L9.97755 10.5448Z" fill="#06B6D4"/>
</svg>