<svg xmlns="http://www.w3.org/2000/svg" width="23" height="23" viewBox="0 0 23 23" fill="none">
  <g clip-path="url(#clip0_177_8734)">
    <path d="M13.9371 1.01029C13.8933 0.964004 13.8406 0.92717 13.782 0.902055C13.7235 0.87694 13.6605 0.864077 13.5968 0.86426H5.32537C3.96364 0.86426 2.85547 1.97111 2.85547 3.33349V19.6678C2.85547 21.0301 3.96364 22.137 5.32537 22.137H17.6748C19.0365 22.137 20.1447 21.0301 20.1447 19.6678V7.79093C20.1447 7.67229 20.0991 7.55755 20.0176 7.4702L13.9371 1.01029ZM14.0642 2.50891L18.5965 7.32417H14.9318C14.4533 7.32417 14.0642 6.93434 14.0642 6.45588V2.50891ZM17.6748 21.2035H5.32537C4.47862 21.2035 3.79023 20.5138 3.79023 19.6678V3.33349C3.79023 2.48737 4.47858 1.79773 5.32537 1.79773H13.1294V6.45588C13.1294 7.44932 13.9377 8.25764 14.9318 8.25764H19.2099V19.6678C19.2099 20.5139 18.5216 21.2035 17.6748 21.2035Z" fill="#A855F7"/>
    <path d="M9.03002 13.1493C8.79536 13.0372 8.5255 12.9824 8.22042 12.9824H6.62988V16.9679H7.5907V15.6159H8.20344C8.68975 15.6159 9.07173 15.4985 9.34942 15.2665C9.62841 15.0344 9.76792 14.7228 9.76792 14.3343C9.76792 14.071 9.70273 13.8363 9.57496 13.629C9.4459 13.4217 9.26469 13.2614 9.03002 13.1493ZM8.64672 14.7346C8.54895 14.8272 8.40682 14.8728 8.22042 14.8728H7.59075V13.7229H8.23088C8.40425 13.7255 8.54115 13.7829 8.64153 13.8924C8.74191 14.0045 8.79274 14.1531 8.79274 14.3395C8.79274 14.509 8.74448 14.6407 8.64672 14.7346ZM12.5136 13.221C12.232 13.0606 11.9152 12.9824 11.5632 12.9824H10.279V16.9679H11.5905C11.9347 16.9666 12.2476 16.8831 12.5279 16.7202C12.8082 16.5572 13.0259 16.3304 13.1798 16.041C13.3337 15.7516 13.4106 15.4256 13.4106 15.0605V14.8754C13.4093 14.5156 13.3297 14.1884 13.172 13.8976C13.0142 13.6056 12.7938 13.3813 12.5136 13.221ZM12.4314 15.0605C12.4314 15.4464 12.3571 15.7385 12.2085 15.9341C12.0612 16.1309 11.8499 16.2287 11.5736 16.2287H11.2398V13.7229H11.5631C11.846 13.7229 12.0611 13.822 12.2084 14.0163C12.3571 14.2119 12.4314 14.5026 12.4314 14.8872L12.4314 15.0605ZM13.9046 16.9679H14.8654V15.3799H16.4156V14.6407H14.8654V13.7229H16.5707V12.9824H13.9046V16.9679Z" fill="#A855F7"/>
  </g>
  <defs>
    <clipPath id="clip0_177_8734">
      <rect width="22.6909" height="22.6909" fill="white" transform="translate(0.154785 0.154785)"/>
    </clipPath>
  </defs>
</svg>