<svg xmlns="http://www.w3.org/2000/svg" width="24" height="23" viewBox="0 0 24 23" fill="none">
  <path d="M20.3185 14.3366L17.4008 11.4189C17.0462 11.0644 16.5653 10.8653 16.0639 10.8653C15.5625 10.8653 15.0817 11.0644 14.7271 11.4189L6.13666 20.0093M5.1912 2.99121H18.4276C19.4719 2.99121 20.3185 3.8378 20.3185 4.88212V18.1185C20.3185 19.1628 19.4719 20.0094 18.4276 20.0094H5.1912C4.14688 20.0094 3.30029 19.1628 3.30029 18.1185V4.88212C3.30029 3.8378 4.14688 2.99121 5.1912 2.99121ZM10.8639 8.66394C10.8639 9.70826 10.0173 10.5548 8.97302 10.5548C7.9287 10.5548 7.08211 9.70826 7.08211 8.66394C7.08211 7.61962 7.9287 6.77303 8.97302 6.77303C10.0173 6.77303 10.8639 7.61962 10.8639 8.66394Z" stroke="#F43F5E" stroke-width="1.27636" stroke-linecap="round" stroke-linejoin="round"/>
</svg>