<svg xmlns="http://www.w3.org/2000/svg" width="18" height="18" viewBox="0 0 18 18" fill="none">
  <g clip-path="url(#clip0_2229_236)">
    <path d="M13.125 4.875H13.1325M5.25 1.5H12.75C14.8211 1.5 16.5 3.17893 16.5 5.25V12.75C16.5 14.8211 14.8211 16.5 12.75 16.5H5.25C3.17893 16.5 1.5 14.8211 1.5 12.75V5.25C1.5 3.17893 3.17893 1.5 5.25 1.5ZM12 8.52754C12.0925 9.15173 11.9859 9.78921 11.6953 10.3493C11.4047 10.9094 10.9448 11.3636 10.3812 11.6473C9.81754 11.931 9.1788 12.0297 8.5558 11.9295C7.93281 11.8292 7.35728 11.5351 6.91109 11.0889C6.4649 10.6427 6.17076 10.0672 6.07051 9.4442C5.97027 8.82121 6.06901 8.18246 6.35271 7.61882C6.6364 7.05518 7.0906 6.59535 7.6507 6.30472C8.2108 6.0141 8.84828 5.90748 9.47246 6.00004C10.1092 6.09446 10.6986 6.39114 11.1537 6.84627C11.6089 7.3014 11.9056 7.89085 12 8.52754Z" stroke="#0369A1" stroke-width="1.2" stroke-linecap="round" stroke-linejoin="round"/>
  </g>
  <defs>
    <clipPath id="clip0_2229_236">
      <rect width="18" height="18" fill="white"/>
    </clipPath>
  </defs>
</svg>