<svg xmlns="http://www.w3.org/2000/svg" width="24" height="23" viewBox="0 0 24 23" fill="none">
  <path d="M13.7368 2.0459V5.82772C13.7368 6.32922 13.936 6.81018 14.2906 7.16479C14.6452 7.51941 15.1262 7.71863 15.6277 7.71863H19.4095M9.95495 8.66408H8.06404M15.6277 12.4459H8.06404M15.6277 16.2277H8.06404M14.6822 2.0459H6.17314C5.67164 2.0459 5.19068 2.24512 4.83606 2.59973C4.48145 2.95435 4.28223 3.43531 4.28223 3.93681V19.0641C4.28223 19.5656 4.48145 20.0465 4.83606 20.4012C5.19068 20.7558 5.67164 20.955 6.17314 20.955H17.5186C18.0201 20.955 18.5011 20.7558 18.8557 20.4012C19.2103 20.0465 19.4095 19.5656 19.4095 19.0641V6.77317L14.6822 2.0459Z" stroke="#EAB308" stroke-width="1.27636" stroke-linecap="round" stroke-linejoin="round"/>
</svg>