<svg xmlns="http://www.w3.org/2000/svg" width="24" height="23" viewBox="0 0 24 23" fill="none">
  <path d="M14.0459 2.0459V5.82772C14.0459 6.32922 14.2451 6.81018 14.5997 7.16479C14.9543 7.51941 15.4353 7.71863 15.9368 7.71863H19.7186M14.9913 2.0459H6.48222C5.98072 2.0459 5.49976 2.24512 5.14514 2.59973C4.79053 2.95435 4.59131 3.43531 4.59131 3.93681V19.0641C4.59131 19.5656 4.79053 20.0465 5.14514 20.4012C5.49976 20.7558 5.98072 20.955 6.48222 20.955H17.8277C18.3292 20.955 18.8101 20.7558 19.1647 20.4012C19.5194 20.0465 19.7186 19.5656 19.7186 19.0641V6.77317L14.9913 2.0459ZM10.264 10.555L14.9913 13.3914L10.264 16.2277V10.555Z" stroke="#10B981" stroke-width="1.27636" stroke-linecap="round" stroke-linejoin="round"/>
</svg>